<?xml version="1.0" encoding="UTF-8"?>
<svg width="44px" height="29px" viewBox="0 0 44 29" version="1.1" xmlns="http://www.w3.org/2000/svg" xmlns:xlink="http://www.w3.org/1999/xlink">
    <!-- Generator: Sketch 53.2 (72643) - https://sketchapp.com -->
    <title>white/American Express </title>
    <desc>Created with Sketch.</desc>
    <g id="Trip-Price" stroke="none" stroke-width="1" fill="none" fill-rule="evenodd">
        <g id="Desktop_Trip-PayPal-" transform="translate(-901.000000, -2457.000000)">
            <g id="Group-41-Copy" transform="translate(801.000000, 2457.000000)">
                <g id="Icon/white/American-Express-" transform="translate(100.000000, 0.000000)">
                    <g id="American-Express-">
                        <path d="M0,2.99428189 C0,1.34058566 1.34085738,0 3.0069809,0 L40.9930191,0 C42.6537288,0 44,1.3405687 44,2.99428189 L44,26.0057181 C44,27.6594143 42.6591426,29 40.9930191,29 L3.0069809,29 C1.34627121,29 0,27.6594313 0,26.0057181 L0,2.99428189 Z" id="Rectangle-Copy-4" fill="#016FD0"></path>
                        <g id="American_Express_logo_(2018)" transform="translate(0.000000, 6.934783)">
                            <path d="M8.54707246,14.9982097 L8.54707246,8.52928177 L15.8286013,8.52928177 L16.6098305,9.48727002 L17.4168928,8.52928177 L43.8470451,8.52928177 L43.8470451,14.5520788 C43.8470451,14.5520788 43.1558499,14.9917412 42.3564507,14.9982097 L27.7215299,14.9982097 L26.8407246,13.9784771 L26.8407246,14.9982097 L23.9543926,14.9982097 L23.9543926,13.2574951 C23.9543926,13.2574951 23.5601153,13.5004784 22.7077145,13.5004784 L21.7252775,13.5004784 L21.7252775,14.9982097 L17.3551273,14.9982097 L16.5750143,14.0196758 L15.7829234,14.9982097 L8.54707246,14.9982097 Z" id="path3082" fill="#FFFFFF"></path>
                            <path d="M0.0439121756,3.65368814 L1.68592565,0.0527603176 L4.52561649,0.0527603176 L5.45747808,2.06985422 L5.45747808,0.0527603176 L8.98747557,0.0527603176 L9.54221325,1.51065598 L10.0800127,0.0527603176 L25.9260418,0.0527603176 L25.9260418,0.785692127 C25.9260418,0.785692127 26.7590536,0.0527603176 28.1280556,0.0527603176 L33.2695123,0.0696627853 L34.1852871,2.06035794 L34.1852871,0.0527603176 L37.1393729,0.0527603176 L37.9524244,1.19625439 L37.9524244,0.0527603176 L40.9336119,0.0527603176 L40.9336119,6.52168415 L37.9524244,6.52168415 L37.1732503,5.37448492 L37.1732503,6.52168415 L32.8330433,6.52168415 L32.3965743,5.5019515 L31.2297803,5.5019515 L30.8004154,6.52168415 L27.8570385,6.52168415 C26.6790553,6.52168415 25.9260418,5.80371755 25.9260418,5.80371755 L25.9260418,6.52168415 L21.4881377,6.52168415 L20.6073319,5.5019515 L20.6073319,6.52168415 L4.10493345,6.52168415 L3.66876523,5.5019515 L2.50569198,5.5019515 L2.07260639,6.52168415 L0.0439121756,6.52168415 L0.0439121756,3.65368814 Z" id="path3080" fill="#FFFFFF"></path>
                            <path d="M2.26709912,0.850241214 L0.0523814731,5.69396717 L1.49427693,5.69396717 L1.90291986,4.72403319 L4.27855385,4.72403319 L4.6850796,5.69396717 L6.15873489,5.69396717 L3.94613429,0.850241214 L2.26709912,0.850241214 Z M3.08650208,1.97752263 L3.81062615,3.67243286 L2.360261,3.67243286 L3.08650208,1.97752263 L3.08650208,1.97752263 Z" id="path3046" fill="#016FD0" fill-rule="nonzero"></path>
                            <polygon id="path3048" fill="#016FD0" points="6.31118172 5.69315344 6.31118172 0.849423352 8.36019541 0.856581704 9.55197142 3.97951088 10.7152093 0.849423352 12.7478372 0.849423352 12.7478372 5.69315344 11.4605061 5.69315344 11.4605061 2.12408916 10.095908 5.69315344 8.96691589 5.69315344 7.59851281 2.12408916 7.59851281 5.69315344"></polygon>
                            <polygon id="path3050" fill="#016FD0" points="13.6286426 5.69315344 13.6286426 0.849423352 17.8294073 0.849423352 17.8294073 1.93289136 14.9295245 1.93289136 14.9295245 2.76142207 17.761653 2.76142207 17.761653 3.78115472 14.9295245 3.78115472 14.9295245 4.64155311 17.8294073 4.64155311 17.8294073 5.69315344"></polygon>
                            <path d="M18.5747041,0.850241214 L18.5747041,5.69396717 L19.8620352,5.69396717 L19.8620352,3.97317039 L20.4040691,3.97317039 L21.9475961,5.69396717 L23.5207656,5.69396717 L21.8269087,3.90943916 C22.522078,3.85425831 23.2391616,3.29301542 23.2391616,2.42166677 C23.2391616,1.4023761 22.3886588,0.850241214 21.4394391,0.850241214 L18.5747041,0.850241214 L18.5747041,0.850241214 Z M19.8620352,1.93370509 L21.333573,1.93370509 C21.6865747,1.93370509 21.9433616,2.19344628 21.9433616,2.44357141 C21.9433616,2.76536681 21.6106509,2.95343774 21.3526291,2.95343774 L19.8620352,2.95343774 L19.8620352,1.93370509 L19.8620352,1.93370509 Z" id="path3052" fill="#016FD0" fill-rule="nonzero"></path>
                            <polygon id="path3054" fill="#016FD0" points="25.0791139 5.69315344 23.764681 5.69315344 23.764681 0.849423352 25.0791139 0.849423352"></polygon>
                            <path d="M28.1958099,5.69315344 L27.912089,5.69315344 C26.5393188,5.69315344 25.7058407,4.67581654 25.7058407,3.29120621 C25.7058407,1.87239027 26.5299871,0.849423352 28.2635642,0.849423352 L29.6864039,0.849423352 L29.6864039,1.99662258 L28.2115446,1.99662258 C27.507808,1.99662258 27.0101101,2.51322594 27.0101101,3.30315607 C27.0101101,4.24120172 27.5792061,4.63517957 28.3990728,4.63517957 L28.7378438,4.63517957 L28.1958099,5.69315344 Z" id="path3056" fill="#016FD0"></path>
                            <path d="M30.9970251,0.850241214 L28.782308,5.69396717 L30.2242034,5.69396717 L30.6328461,4.72403319 L33.0084803,4.72403319 L33.4150056,5.69396717 L34.8886609,5.69396717 L32.6760608,0.850241214 L30.9970251,0.850241214 Z M31.8164285,1.97752263 L32.5405522,3.67243286 L31.0901875,3.67243286 L31.8164285,1.97752263 Z" id="path3058" fill="#016FD0" fill-rule="nonzero"></path>
                            <polygon id="path3060" fill="#016FD0" points="35.0389907 5.69315344 35.0389907 0.849423352 36.6756796 0.849423352 38.7654754 3.89268953 38.7654754 0.849423352 40.0528065 0.849423352 40.0528065 5.69315344 38.4690507 5.69315344 36.3263218 2.57022426 36.3263218 5.69315344"></polygon>
                            <polygon id="path3062" fill="#016FD0" points="9.42787824 14.169679 9.42787824 9.32594894 13.6286426 9.32594894 13.6286426 10.4094169 10.7287602 10.4094169 10.7287602 11.2379477 13.5608883 11.2379477 13.5608883 12.2576803 10.7287602 12.2576803 10.7287602 13.1180787 13.6286426 13.1180787 13.6286426 14.169679"></polygon>
                            <polygon id="path3064" fill="#016FD0" points="30.0116241 14.169679 30.0116241 9.32594894 34.2123888 9.32594894 34.2123888 10.4094169 31.312506 10.4094169 31.312506 11.2379477 34.1310837 11.2379477 34.1310837 12.2576803 31.312506 12.2576803 31.312506 13.1180787 34.2123888 13.1180787 34.2123888 14.169679"></polygon>
                            <polygon id="path3066" fill="#016FD0" points="13.7916762 14.169679 15.8370083 11.7776866 13.742978 9.32594894 15.3648457 9.32594894 16.6119475 10.841603 17.8632842 9.32594894 19.4216325 9.32594894 17.3551273 11.747814 19.4042244 14.169679 17.7826132 14.169679 16.5717187 12.6779165 15.3902537 14.169679"></polygon>
                            <path d="M19.5571411,9.3267668 L19.5571411,14.1704928 L20.8783491,14.1704928 L20.8783491,12.6408938 L22.2334345,12.6408938 C23.3800284,12.6408938 24.2491237,12.0687048 24.2491237,10.9559466 C24.2491237,10.0341425 23.5674877,9.3267668 22.400703,9.3267668 L19.5571411,9.3267668 L19.5571411,9.3267668 Z M20.8783491,10.4221805 L22.3054232,10.4221805 C22.6758426,10.4221805 22.9406194,10.6357373 22.9406194,10.9798463 C22.9406194,11.3031163 22.6771793,11.5375121 22.3011888,11.5375121 L20.8783491,11.5375121 L20.8783491,10.4221805 Z" id="path3068" fill="#016FD0" fill-rule="nonzero"></path>
                            <path d="M24.8080967,9.32594894 L24.8080967,14.169679 L26.0954278,14.169679 L26.0954278,12.4488781 L26.6374617,12.4488781 L28.1809887,14.169679 L29.7541582,14.169679 L28.0603014,12.3851469 C28.7554702,12.3299578 29.4725543,11.7687231 29.4725543,10.8973704 C29.4725543,9.87808382 28.6220514,9.32594894 27.6728317,9.32594894 L24.8080967,9.32594894 L24.8080967,9.32594894 Z M26.0954278,10.4094169 L27.5669656,10.4094169 C27.9199673,10.4094169 28.1767538,10.669154 28.1767538,10.9192791 C28.1767538,11.2410787 27.8440431,11.4291455 27.5860213,11.4291455 L26.0954278,11.4291455 L26.0954278,10.4094169 L26.0954278,10.4094169 Z" id="path3072" fill="#016FD0" fill-rule="nonzero"></path>
                            <path d="M34.8086261,14.169679 L34.8086261,13.1180787 L37.3849825,13.1180787 C37.7661907,13.1180787 37.9312513,12.9243034 37.9312513,12.7117792 C37.9312513,12.5081565 37.766711,12.3022951 37.3849825,12.3022951 L36.2207565,12.3022951 C35.2087693,12.3022951 34.6451692,11.7223198 34.6451692,10.851566 C34.6451692,10.0749158 35.1612901,9.32594894 36.6650933,9.32594894 L39.1720012,9.32594894 L38.6299669,10.4157863 L36.4618304,10.4157863 C36.0473781,10.4157863 35.9197961,10.6203591 35.9197961,10.8157164 C35.9197961,11.0165138 36.0774566,11.2379477 36.3940761,11.2379477 L37.6136529,11.2379477 C38.7417695,11.2379477 39.2312861,11.8398771 39.2312861,12.6281302 C39.2312861,13.4755791 38.6858038,14.169679 37.55224,14.169679 L34.8086261,14.169679 Z" id="path3074" fill="#016FD0"></path>
                            <path d="M39.5334283,14.169679 L39.5334283,13.1180787 L42.1097828,13.1180787 C42.4909932,13.1180787 42.6560547,12.9243034 42.6560547,12.7117792 C42.6560547,12.5081565 42.4915114,12.3022951 42.1097828,12.3022951 L40.9455586,12.3022951 C39.9335714,12.3022951 39.3699709,11.7223198 39.3699709,10.851566 C39.3699709,10.0749158 39.8860918,9.32594894 41.389895,9.32594894 L43.896802,9.32594894 L43.3547677,10.4157863 L41.1866321,10.4157863 C40.7721802,10.4157863 40.6445982,10.6203591 40.6445982,10.8157164 C40.6445982,11.0165138 40.8022583,11.2379477 41.1188778,11.2379477 L42.3384555,11.2379477 C43.4665725,11.2379477 43.9560878,11.8398771 43.9560878,12.6281302 C43.9560878,13.4755791 43.4106064,14.169679 42.2770399,14.169679 L39.5334283,14.169679 Z" id="path3076" fill="#016FD0"></path>
                        </g>
                    </g>
                </g>
            </g>
        </g>
    </g>
</svg>