<?xml version="1.0" encoding="UTF-8"?>
<svg width="44px" height="29px" viewBox="0 0 44 29" version="1.1" xmlns="http://www.w3.org/2000/svg" xmlns:xlink="http://www.w3.org/1999/xlink">
    <!-- Generator: Sketch 53.2 (72643) - https://sketchapp.com -->
    <title>white/Dinerclub </title>
    <desc>Created with Sketch.</desc>
    <defs>
        <linearGradient x1="70.7519601%" y1="78.5777893%" x2="32.4763686%" y2="21.4222107%" id="linearGradient-1">
            <stop stop-color="#009BE0" offset="0%"></stop>
            <stop stop-color="#006BA8" offset="100%"></stop>
        </linearGradient>
    </defs>
    <g id="Trip-Price" stroke="none" stroke-width="1" fill="none" fill-rule="evenodd">
        <g id="Desktop_Trip-PayPal-" transform="translate(-952.000000, -2457.000000)">
            <g id="Group-41-Copy" transform="translate(801.000000, 2457.000000)">
                <g id="Icon/white/Dinerclub-" transform="translate(151.000000, 0.000000)">
                    <g id="Dinerclub-">
                        <path d="M0.5,2.99428189 L0.5,26.0057181 C0.5,27.3828078 1.62193468,28.5 3.0069809,28.5 L40.9930191,28.5 C42.3814643,28.5 43.5,27.3848012 43.5,26.0057181 L43.5,2.99428189 C43.5,1.61719218 42.3780653,0.5 40.9930191,0.5 L3.0069809,0.5 C1.61853568,0.5 0.5,1.6151988 0.5,2.99428189 Z" id="Rectangle-Copy-23" stroke="#E6E7E8" fill="#FFFFFF"></path>
                        <g id="Shape-+-Shape" transform="translate(12.000000, 6.934783)">
                            <path d="M11.7014129,15.1004741 C16.0263736,15.1202185 19.9739403,11.7345965 19.9739403,7.61585246 C19.9739403,3.11177669 16.0263736,-0.00149752245 11.7014129,5.40398708e-07 L7.97927786,5.40398708e-07 C3.60251177,-0.00149752245 0,3.11270549 0,7.61585246 C0,11.7354953 3.60251177,15.1202485 7.97927786,15.1004741 L11.7014129,15.1004741 L11.7014129,15.1004741 Z" id="Shape" fill="url(#linearGradient-1)"></path>
                            <path d="M7.99466248,0.629186397 C3.99529042,0.630384847 0.754474097,3.72388463 0.753532182,7.54187757 C0.754474097,11.3592114 3.99525903,14.4524115 7.99466248,14.45361 C11.9949765,14.4524115 15.2364521,11.3592114 15.2370173,7.54187757 C15.2364207,3.72388463 11.9949765,0.630384847 7.99466248,0.629186397 L7.99466248,0.629186397 Z M3.40470958,7.54187757 L3.40470958,7.54187757 C3.40847724,5.6761901 4.62951334,4.08524735 6.35133438,3.45303487 L6.35133438,11.6297615 C4.62951334,10.9979086 3.40844584,9.4078347 3.40470958,7.54187757 L3.40470958,7.54187757 Z M9.63736264,11.6315592 L9.63736264,11.6315592 L9.63736264,3.45276522 C11.3598116,4.08344968 12.5827316,5.67529126 12.5858713,7.54187757 C12.5827316,9.40903315 11.3598116,10.9996763 9.63736264,11.6315592 L9.63736264,11.6315592 Z" id="Shape" fill="#F4F6F7"></path>
                        </g>
                    </g>
                </g>
            </g>
        </g>
    </g>
</svg>