<?xml version="1.0" encoding="UTF-8"?>
<svg width="44px" height="29px" viewBox="0 0 44 29" version="1.1" xmlns="http://www.w3.org/2000/svg" xmlns:xlink="http://www.w3.org/1999/xlink">
    <!-- Generator: Sketch 53.2 (72643) - https://sketchapp.com -->
    <title>white/Mastercard </title>
    <desc>Created with Sketch.</desc>
    <g id="Trip-Price" stroke="none" stroke-width="1" fill="none" fill-rule="evenodd">
        <g id="Desktop_Trip-PayPal-" transform="translate(-801.000000, -2457.000000)">
            <g id="Group-41-Copy" transform="translate(801.000000, 2457.000000)">
                <g id="Icon/white/Mastercard-">
                    <g id="Mastercard-">
                        <path d="M0.5,2.99428189 L0.5,26.0057181 C0.5,27.3828078 1.62193468,28.5 3.0069809,28.5 L40.9930191,28.5 C42.3814643,28.5 43.5,27.3848012 43.5,26.0057181 L43.5,2.99428189 C43.5,1.61719218 42.3780653,0.5 40.9930191,0.5 L3.0069809,0.5 C1.61853568,0.5 0.5,1.6151988 0.5,2.99428189 Z" id="Rectangle-Copy-4" stroke="#E6E7E8" fill="#FFFFFF"></path>
                        <g id="mc_symbol" transform="translate(8.666667, 6.304348)">
                            <g id="Group" opacity="0" fill="#FFFFFF">
                                <rect id="Rectangle" x="0" y="0" width="26.5434343" height="16.3724638"></rect>
                            </g>
                            <rect id="Rectangle" fill="#FF5F00" x="9.77171717" y="2.85246377" width="7.0020202" height="10.6656522"></rect>
                            <path d="M10.4929293,8.18623188 C10.4911712,6.10529013 11.5154765,4.13915831 13.2707071,2.85434783 C10.2888465,0.668850336 6.00677521,0.987186945 3.43381776,3.58563924 C0.860860297,6.18409153 0.860860297,10.1902563 3.43381776,12.7887086 C6.00677521,15.3871609 10.2888465,15.7054975 13.2707071,13.52 C11.5149179,12.2347815 10.49055,10.2678348 10.4929293,8.18623188 Z" id="Path" fill="#EB001B"></path>
                            <path d="M24.4340404,12.9742819 L24.4340404,12.2712516 L24.6007071,12.2712516 L24.6007071,12.1257971 L24.2040404,12.1257971 L24.2040404,12.2712516 L24.3607071,12.2712516 L24.3607071,12.9742819 L24.4340404,12.9742819 Z M25.2040404,12.9742819 L25.2040404,12.1257971 L25.0840404,12.1257971 L24.9440404,12.7318577 L24.8040404,12.1257971 L24.6840404,12.1257971 L24.6840404,12.9742819 L24.7707071,12.9742819 L24.7707071,12.3318577 L24.9007071,12.8833729 L24.9907071,12.8833729 L25.1207071,12.3318577 L25.1207071,12.9742819 L25.2040404,12.9742819 Z" id="Shape" fill="#F79E1B" fill-rule="nonzero"></path>
                            <path d="M25.0383838,8.18623188 C25.0383189,10.7831007 23.4483679,13.1519776 20.943789,14.2867916 C18.43921,15.4216056 15.4597151,15.1231251 13.2707071,13.5181159 C15.0251718,12.2322147 16.0495542,10.2663443 16.0495542,8.18528986 C16.0495542,6.10423544 15.0251718,4.13836502 13.2707071,2.85246377 C15.4597151,1.2474546 18.43921,0.948974109 20.943789,2.08378811 C23.4483679,3.21860211 25.0383189,5.58747906 25.0383838,8.18434783 L25.0383838,8.18623188 Z" id="Path" fill="#F79E1B"></path>
                        </g>
                    </g>
                </g>
            </g>
        </g>
    </g>
</svg>