<?xml version="1.0" encoding="UTF-8"?>
<svg width="55px" height="14px" viewBox="0 0 55 14" version="1.1" xmlns="http://www.w3.org/2000/svg" xmlns:xlink="http://www.w3.org/1999/xlink">
    <!-- Generator: Sketch 53.2 (72643) - https://sketchapp.com -->
    <title>PayPal Copy</title>
    <desc>Created with Sketch.</desc>
    <g id="Trip-Price" stroke="none" stroke-width="1" fill="none" fill-rule="evenodd">
        <g id="Desktop_Trip-PayPal-" transform="translate(-1094.000000, -2465.000000)" fill-rule="nonzero">
            <g id="PayPal-Copy" transform="translate(1094.000000, 2465.000000)">
                <path d="M20.7365724,2.00000009 L17.6663501,2.00000009 C17.4563593,1.99986157 17.2775205,2.15960841 17.2448062,2.37654196 L16.0030698,10.6102263 C15.9915169,10.6875489 16.012906,10.7662857 16.0616055,10.8257058 C16.110305,10.8851259 16.1814344,10.9192742 16.2562655,10.9191597 L17.7220172,10.9191597 C17.9321534,10.9192619 18.1110454,10.7592684 18.1435611,10.5421483 L18.4784618,8.32139635 C18.5109513,8.10445193 18.6895907,7.94451395 18.8995568,7.94438498 L19.8714871,7.94438498 C21.8939102,7.94438498 23.0611244,6.92086716 23.3659469,4.89261168 C23.5033191,4.0052499 23.371783,3.30803708 22.9744812,2.81975335 C22.5381227,2.28358026 21.7641699,2.00000009 20.7365724,2.00000009 L20.7365724,2.00000009 Z M21.090777,5.00717055 C20.9228778,6.15933235 20.0811367,6.15933235 19.2672293,6.15933235 L18.803935,6.15933235 L19.1289593,4.00759742 C19.148617,3.87754488 19.2558087,3.78176825 19.3817061,3.78176619 L19.5940493,3.78176619 C20.148476,3.78176619 20.6714778,3.78176619 20.9417328,4.11229672 C21.1028981,4.30948822 21.1522803,4.60245846 21.090777,5.00717055 L21.090777,5.00717055 Z M29.9140187,4.97007977 L28.4437777,4.97007977 C28.3178803,4.97008182 28.2106886,5.06585846 28.1910309,5.19591099 L28.1259363,5.62597627 L28.0231317,5.47010108 C27.7048413,4.9869819 26.9950853,4.82547266 26.286676,4.82547266 C24.6620036,4.82547266 23.2743655,6.11238199 23.0041105,7.91762327 C22.8635959,8.81813115 23.0633691,9.67920072 23.5518033,10.2796958 C23.999834,10.831832 24.640904,11.0618888 25.4036336,11.0618888 C26.7127092,11.0618888 27.4386267,10.1815696 27.4386267,10.1815696 L27.3730831,10.6088178 C27.3612633,10.6861246 27.3824043,10.7649676 27.4309361,10.8245744 C27.4794679,10.8841811 27.550523,10.9185735 27.625381,10.9186902 L28.9497202,10.9186902 C29.1598564,10.9187924 29.3387483,10.7587989 29.3712641,10.5416788 L30.1658676,5.27901313 C30.177704,5.20187589 30.1566028,5.12319002 30.1081379,5.06373999 C30.059673,5.00428996 29.9887192,4.97005561 29.9140187,4.97007977 L29.9140187,4.97007977 Z M27.8646599,7.96269562 C27.7227985,8.84113682 27.0561396,9.43083333 26.2058689,9.43083333 C25.7789379,9.43083333 25.4377522,9.28763473 25.218675,9.01626166 C25.0013936,8.7467666 24.9187908,8.36318217 24.9879258,7.93593391 C25.1203597,7.06500476 25.7982418,6.45605861 26.6354935,6.45605861 C27.0529971,6.45605861 27.392387,6.60113522 27.6159535,6.87485581 C27.8399688,7.15139342 27.9288567,7.53732537 27.8646599,7.96269562 L27.8646599,7.96269562 Z M37.7442304,4.97007977 L36.2668065,4.97007977 C36.1253484,4.97031396 35.9931255,5.04358457 35.9134998,5.16586276 L33.8758131,8.30496373 L33.0120746,5.2884032 C32.9576357,5.09949419 32.7913074,4.97017509 32.6026517,4.97007977 L31.1508168,4.97007977 C31.0681296,4.96984981 30.9904322,5.011421 30.9422279,5.08168323 C30.8940236,5.15194546 30.8812541,5.24223791 30.9079465,5.32408547 L32.5353125,10.3186646 L31.005364,12.5774463 C30.9499338,12.6590897 30.9427205,12.7662651 30.9866684,12.8552241 C31.0306164,12.9441832 31.1183727,13.0000421 31.2141158,12.9999996 L32.6897439,12.9999996 C32.8295937,13.000201 32.9606324,12.9286081 33.0403571,12.8084421 L37.9543289,5.39028548 C38.0086148,5.30848431 38.0149868,5.20192628 37.9708691,5.11368895 C37.9267513,5.02545163 37.8394394,4.97012659 37.7442304,4.97007977 L37.7442304,4.97007977 Z" id="Shape" fill="#253B80"></path>
                <path d="M42.5821207,3.00046627 L39.6116267,3.00046627 C39.4086511,3.00055821 39.2358909,3.15915079 39.2042694,3.37441716 L38.0030433,11.5514454 C37.9917363,11.6281037 38.0122608,11.7062338 38.0592092,11.765251 C38.1061577,11.8242682 38.1748216,11.8582535 38.2471102,11.858253 L39.7714427,11.858253 C39.9135113,11.8580294 40.0343277,11.7469007 40.0563322,11.5962076 L40.3972442,9.27836494 C40.4286737,9.06291331 40.6014852,8.90407586 40.8046014,8.90394778 L41.7443893,8.90394778 C43.7012674,8.90394778 44.8299683,7.8874728 45.1252806,5.87317376 C45.2586054,4.99191794 45.130492,4.29950264 44.7461517,3.8145788 C44.3244632,3.28209512 43.576194,3.00046627 42.5821207,3.00046627 L42.5821207,3.00046627 Z M42.9247698,5.98694436 C42.7627824,7.13117812 41.9485022,7.13117812 41.1607133,7.13117812 L40.7129677,7.13117812 L41.0278227,4.9942493 C41.0464727,4.86506177 41.1501288,4.76981038 41.2718897,4.76997202 L41.4773054,4.76997202 C42.0132103,4.76997202 42.519584,4.76997202 42.7810223,5.09822816 C42.9369298,5.29406279 42.9842666,5.5850171 42.9247698,5.98694436 L42.9247698,5.98694436 Z M51.4597289,5.9501088 L50.0383215,5.9501088 C49.9164926,5.94974899 49.8127326,6.04509583 49.7942546,6.17438607 L49.7312836,6.60149207 L49.6313985,6.44668946 C49.323492,5.96689462 48.6373253,5.80649674 47.9520271,5.80649674 C46.3803578,5.80649674 45.038424,7.08455082 44.7769858,8.87737022 C44.6414896,9.77168169 44.8338769,10.6268262 45.3063765,11.2231893 C45.7406593,11.7715263 46.3599465,12 47.0977929,12 C48.3641614,12 49.0663967,11.1257383 49.0663967,11.1257383 L49.0029914,11.5500466 C48.9915332,11.6269824 49.012095,11.7054415 49.0592387,11.7646734 C49.1063824,11.8239054 49.1753594,11.857944 49.2479268,11.8577868 L50.5286267,11.8577868 C50.7317429,11.8576587 50.9045544,11.6988212 50.9359839,11.4833696 L51.7050987,6.25691638 C51.7161323,6.18007435 51.6953297,6.1018934 51.6481542,6.04290566 C51.6009787,5.98391792 51.5321444,5.950018 51.4597289,5.9501088 L51.4597289,5.9501088 Z M49.4772281,8.92213242 C49.3408634,9.79452906 48.6950849,10.3801679 47.8725533,10.3801679 C47.460419,10.3801679 47.1294955,10.2379546 46.9175656,9.96844887 C46.7073727,9.70080821 46.6283332,9.31986323 46.6943442,8.89555486 C46.8233262,8.03061859 47.4782246,7.4258626 48.2881619,7.4258626 C48.6920449,7.4258626 49.0203627,7.56994094 49.2366355,7.84177805 C49.4542112,8.11641281 49.5401991,8.49968915 49.4772281,8.92213242 L49.4772281,8.92213242 Z M53.1364947,3.22474355 L51.917463,11.5514454 C51.906156,11.6281037 51.9266804,11.7062338 51.9736289,11.765251 C52.0205774,11.8242682 52.0892412,11.8582535 52.1615299,11.858253 L53.3870758,11.858253 C53.5907545,11.858253 53.763599,11.6997202 53.7948674,11.4838359 L54.996962,3.30727386 C55.0082553,3.23057158 54.9877393,3.15240294 54.9408072,3.09331667 C54.8938751,3.03423041 54.825222,3.00013743 54.7528951,3 L53.3805616,3 C53.2588629,3.00046267 53.1554628,3.09567634 53.1364947,3.22474355 L53.1364947,3.22474355 Z" id="Shape" fill="#179BD7"></path>
                <path d="M3.64157902,13 L3.86422944,11.5828655 L3.36826819,11.5713475 L1,11.5713475 L2.64582506,1.11432823 C2.6559522,1.04829023 2.71282496,0.999649616 2.77950045,1.0000019 L6.77273352,1.0000019 C8.09841879,1.0000019 9.01328637,1.27643271 9.49094175,1.8220423 C9.71486932,2.07799675 9.85748479,2.34546916 9.92645107,2.63981679 C9.9988231,2.9486685 10.0001003,3.3176695 9.9294311,3.76772276 L9.92432248,3.80057025 L9.92432248,4.0889456 L10.1482501,4.21606965 C10.3192,4.30285529 10.4728601,4.42025233 10.6016395,4.56246134 C10.7932125,4.7813024 10.9170964,5.05943958 10.9694597,5.38919424 C11.0235259,5.72833389 11.0056457,6.13188875 10.9170964,6.58876746 C10.8149241,7.11432727 10.6497456,7.57205916 10.4266695,7.94660585 C10.2298465,8.28213927 9.96521009,8.57274643 9.64973449,8.79978737 C9.3534349,9.01052321 9.00136627,9.17049474 8.60332011,9.27287652 C8.21761978,9.37355194 7.77785328,9.42431624 7.295515,9.42431624 L6.98474099,9.42431624 C6.7625163,9.42431624 6.54667737,9.50451531 6.37724168,9.64827639 C6.20804621,9.79357143 6.09580581,9.99432533 6.06050762,10.2147889 L6.03709315,10.3423396 L5.64372989,12.8400285 L5.62584974,12.9317455 C5.62116684,12.9607537 5.6130782,12.9752577 5.60115811,12.9850693 C5.58961091,12.9945321 5.57520473,12.9997951 5.5602892,13 L3.64157902,13 Z" id="Path" fill="#253B80"></path>
                <path d="M9.82632265,3 C9.81332493,3.08747223 9.79847039,3.17689916 9.78175903,3.26876944 C9.20753834,6.37232341 7.24302581,7.44446912 4.73400166,7.44446912 L3.45651148,7.44446912 C3.14967245,7.44446912 2.89111066,7.67903154 2.84329762,7.99764549 L2.18923379,12.3644158 L2.00401628,13.6022212 C1.98908446,13.7015861 2.01621612,13.8028527 2.07826823,13.8793602 C2.14032034,13.9558678 2.23107472,13.9999495 2.32663825,14 L4.59241936,14 C4.86072943,14 5.08865374,13.7947579 5.13089633,13.516215 L5.15317813,13.3950244 L5.57978187,10.5450911 L5.60716992,10.3887161 C5.64894831,10.1091959 5.87733681,9.9039538 6.14564689,9.9039538 L6.48451601,9.9039538 C8.67973807,9.9039538 10.3982223,8.96570413 10.9004914,6.25064416 C11.1103117,5.11643714 11.0016879,4.16939138 10.4464996,3.50333185 C10.2705338,3.29728981 10.0603756,3.12672671 9.82632265,3 L9.82632265,3 Z" id="Path" fill="#179BD7"></path>
                <path d="M9.39785947,3.19859757 C9.21406532,3.14753152 9.02709411,3.10767501 8.83806422,3.07926643 C8.46455093,3.02413359 8.08705669,2.99768078 7.70916705,3.00015926 L4.28804095,3.00015926 C4.01902179,2.99995976 3.7900372,3.18820041 3.74872034,3.44351691 L3.02093997,7.87083633 L3,8 C3.04684837,7.70877598 3.30789342,7.49392467 3.61470451,7.49407172 L4.89530014,7.49407172 C7.41042345,7.49407172 9.37971149,6.51305353 9.95532806,3.67502827 C9.97254537,3.59100484 9.98697068,3.50921608 10,3.42921505 C9.84810856,3.35271288 9.68980631,3.28857681 9.52675663,3.23748075 C9.48401028,3.22385815 9.44103902,3.21089542 9.39785947,3.19859757 L9.39785947,3.19859757 Z" id="Path" fill="#222D65"></path>
                <path d="M4.1467899,3.44345881 C4.18476801,3.18783757 4.39727898,2.99942043 4.64670375,3.00022363 L7.817857,3.00022363 C8.19354721,3.00022363 8.54422017,3.02571748 8.86426856,3.07938874 C9.08084362,3.11468308 9.29442794,3.1674714 9.50307132,3.23727171 C9.66050752,3.29139023 9.80672909,3.35534849 9.94173602,3.42914648 C10.1004662,2.37942602 9.94044203,1.66470369 9.39308165,1.0175177 C8.78964811,0.305031681 7.70053468,0 6.30690082,0 L2.26100617,0 C1.97632701,0 1.73348707,0.214685054 1.6894912,0.50674618 L0.00427686804,11.5831532 C-0.0116084162,11.687225 0.0172122977,11.7932939 0.0831576983,11.8734584 C0.149103099,11.9536229 0.245571148,11.9998575 0.34718585,12 L2.84502976,12 L3.47218657,7.87402162 L4.1467899,3.44345881 Z" id="Path" fill="#253B80"></path>
            </g>
        </g>
    </g>
</svg>