<?xml version="1.0" encoding="UTF-8"?>
<svg width="43px" height="29px" viewBox="0 0 43 29" version="1.1" xmlns="http://www.w3.org/2000/svg" xmlns:xlink="http://www.w3.org/1999/xlink">
    <!-- Generator: Sketch 53.2 (72643) - https://sketchapp.com -->
    <title>white/Stripe </title>
    <desc>Created with Sketch.</desc>
    <g id="Trip-Price" stroke="none" stroke-width="1" fill="none" fill-rule="evenodd">
        <g id="Desktop_Trip-PayPal-" transform="translate(-1004.000000, -2457.000000)">
            <g id="Group-41-Copy" transform="translate(801.000000, 2457.000000)">
                <g id="Icon/white/Stripe-" transform="translate(203.000000, 0.000000)">
                    <g id="Stripe-">
                        <path d="M0.5,2.99428189 L0.5,26.0057181 C0.5,27.3828226 1.62177247,28.5 3.00658591,28.5 L39.9934141,28.5 C41.3857923,28.5 42.5,27.3872748 42.5,26.0057181 L42.5,2.99428189 C42.5,1.61717741 41.3782275,0.5 39.9934141,0.5 L3.00658591,0.5 C1.61420766,0.5 0.5,1.61272524 0.5,2.99428189 Z" id="Rectangle-Copy-8" stroke="#E6E7E8" fill="#FFFFFF"></path>
                        <g id="Stripe-logo---white" transform="translate(8.469697, 9.456522)" fill="#6772E5">
                            <path d="M26.0606061,5.53017391 C26.0606061,3.70107246 25.162963,2.2577971 23.4473064,2.2577971 C21.7244108,2.2577971 20.6819865,3.70107246 20.6819865,5.51588406 C20.6819865,7.66650725 21.9126263,8.75253623 23.6789562,8.75253623 C24.540404,8.75253623 25.1919192,8.55962319 25.6841751,8.28811594 L25.6841751,6.85913043 C25.1919192,7.10205797 24.6272727,7.25210145 23.9106061,7.25210145 C23.2084175,7.25210145 22.5858586,7.00917391 22.506229,6.16607246 L26.0461279,6.16607246 C26.0461279,6.07318841 26.0606061,5.70165217 26.0606061,5.53017391 Z M22.4845118,4.8514058 C22.4845118,4.04402899 22.9840067,3.70821739 23.4400673,3.70821739 C23.8816498,3.70821739 24.3521886,4.04402899 24.3521886,4.8514058 L22.4845118,4.8514058 Z" id="Shape"></path>
                            <path d="M17.8877104,2.2577971 C17.1782828,2.2577971 16.7222222,2.58646377 16.4688552,2.81510145 L16.3747475,2.37211594 L14.7821549,2.37211594 L14.7821549,10.7031014 L16.5919192,10.3244203 L16.5991582,8.3024058 C16.8597643,8.48817391 17.2434343,8.75253623 17.8804714,8.75253623 C19.1762626,8.75253623 20.356229,7.72366667 20.356229,5.45872464 C20.3489899,3.38669565 19.1545455,2.2577971 17.8877104,2.2577971 Z M17.453367,7.18065217 C17.0262626,7.18065217 16.7728956,7.0306087 16.5991582,6.84484058 L16.5919192,4.19407246 C16.7801347,3.98686957 17.0407407,3.84397101 17.453367,3.84397101 C18.1121212,3.84397101 18.5681818,4.57275362 18.5681818,5.50873913 C18.5681818,6.46615942 18.1193603,7.18065217 17.453367,7.18065217 Z" id="Shape"></path>
                            <polygon id="Path" points="12.2919192 1.83624638 14.1089226 1.45042029 14.1089226 0 12.2919192 0.378681159"></polygon>
                            <rect id="Rectangle" x="12.2919192" y="2.37926087" width="1.81700337" height="6.25181159"></rect>
                            <path d="M10.3446128,2.90798551 L10.2287879,2.37926087 L8.66515152,2.37926087 L8.66515152,8.63107246 L10.4749158,8.63107246 L10.4749158,4.39413043 C10.9020202,3.84397101 11.6259259,3.944 11.8503367,4.0225942 L11.8503367,2.37926087 C11.6186869,2.29352174 10.7717172,2.13633333 10.3446128,2.90798551 Z" id="Path"></path>
                            <path d="M6.72508418,0.828811594 L4.95875421,1.20034783 L4.95151515,6.92343478 C4.95151515,7.98088406 5.75505051,8.75968116 6.82643098,8.75968116 C7.42003367,8.75968116 7.8543771,8.65250725 8.09326599,8.52389855 L8.09326599,7.07347826 C7.86161616,7.16636232 6.71784512,7.49502899 6.71784512,6.43757971 L6.71784512,3.90113043 L8.09326599,3.90113043 L8.09326599,2.37926087 L6.71784512,2.37926087 L6.72508418,0.828811594 Z" id="Path"></path>
                            <path d="M1.83148148,4.19407246 C1.83148148,3.91542029 2.06313131,3.80824638 2.44680135,3.80824638 C2.9969697,3.80824638 3.69191919,3.97257971 4.24208754,4.26552174 L4.24208754,2.58646377 C3.64124579,2.35068116 3.0476431,2.2577971 2.44680135,2.2577971 C0.977272727,2.2577971 0,3.01515942 0,4.27981159 C0,6.25181159 2.75084175,5.93743478 2.75084175,6.78768116 C2.75084175,7.11634783 2.46127946,7.22352174 2.05589226,7.22352174 C1.45505051,7.22352174 0.687710438,6.9805942 0.0796296296,6.65192754 L0.0796296296,8.35242029 C0.752861953,8.63821739 1.43333333,8.75968116 2.05589226,8.75968116 C3.56161616,8.75968116 4.59680135,8.02375362 4.59680135,6.74481159 C4.58956229,4.61562319 1.83148148,4.99430435 1.83148148,4.19407246 Z" id="Path"></path>
                        </g>
                    </g>
                </g>
            </g>
        </g>
    </g>
</svg>