<?xml version="1.0" encoding="UTF-8"?>
<svg width="44px" height="29px" viewBox="0 0 44 29" version="1.1" xmlns="http://www.w3.org/2000/svg" xmlns:xlink="http://www.w3.org/1999/xlink">
    <!-- Generator: Sketch 53.2 (72643) - https://sketchapp.com -->
    <title>white/Visa</title>
    <desc>Created with Sketch.</desc>
    <g id="Trip-Price" stroke="none" stroke-width="1" fill="none" fill-rule="evenodd">
        <g id="Desktop_Trip-PayPal-" transform="translate(-850.000000, -2457.000000)">
            <g id="Group-41-Copy" transform="translate(801.000000, 2457.000000)">
                <g id="Icon/white/Visa" transform="translate(49.000000, 0.000000)">
                    <g id="Visa-">
                        <path d="M0.5,2.99428189 L0.5,26.0057181 C0.5,27.3828078 1.62193468,28.5 3.0069809,28.5 L40.9930191,28.5 C42.3814643,28.5 43.5,27.3848012 43.5,26.0057181 L43.5,2.99428189 C43.5,1.61719218 42.3780653,0.5 40.9930191,0.5 L3.0069809,0.5 C1.61853568,0.5 0.5,1.6151988 0.5,2.99428189 Z" id="Rectangle-Copy-4" stroke="#E6E7E8" fill="#FFFFFF"></path>
                        <g id="Visa_Inc._logo" transform="translate(7.333333, 10.086957)" fill="#0742A6">
                            <polygon id="polygon9" points="12.6815626 8.6646905 10.3217663 8.6646905 11.797752 0.25966127 14.1574193 0.25966127"></polygon>
                            <path d="M21.236034,0.465140252 C20.7705785,0.295076387 20.0323276,0.107304963 19.1194824,0.107304963 C16.7891077,0.107304963 15.1480769,1.25175991 15.1380116,2.88798583 C15.1186553,4.09518971 16.3129417,4.76570007 17.2061724,5.16822021 C18.1191466,5.5795347 18.4294933,5.8480003 18.4294933,6.21462995 C18.4202022,6.77770653 17.6917585,7.03725893 17.0123509,7.03725893 C16.0702131,7.03725893 15.5653997,6.90344208 14.7982433,6.59017279 L14.4875095,6.45588057 L14.1572903,8.34262686 C14.7107526,8.57484544 15.7304448,8.78091864 16.7891077,8.78995068 C19.2651711,8.78995068 20.8771674,7.66320329 20.8962657,5.91954359 C20.9056858,4.96274123 20.2750561,4.22960077 18.9154665,3.63051486 C18.0901121,3.24593997 17.5846534,2.98662525 17.5846534,2.59313716 C17.5943316,2.23542071 18.0121705,1.86902875 18.9438559,1.86902875 C19.7110123,1.85108351 20.274669,2.02090969 20.7016699,2.19085471 L20.9151058,2.28010556 L21.236034,0.465140252 L21.236034,0.465140252 L21.236034,0.465140252 Z" id="path11"></path>
                            <path d="M24.3724068,5.68708732 C24.5667445,5.20422954 25.3145446,3.3354285 25.3145446,3.3354285 C25.3047374,3.35337374 25.5084951,2.84365752 25.6250203,2.53074476 L25.7899364,3.25497201 C25.7899364,3.25497201 26.2368098,5.26685963 26.3338496,5.68708732 C25.9650468,5.68708732 24.8385076,5.68708732 24.3724068,5.68708732 L24.3724068,5.68708732 Z M27.2852784,0.25966127 L25.4599752,0.25966127 C24.8970928,0.25966127 24.4694466,0.411542207 24.226589,0.957030077 L20.7214134,8.66457166 L23.1974768,8.66457166 C23.1974768,8.66457166 23.6051214,7.62719396 23.6927411,7.40376974 C23.9643751,7.40376974 26.3730785,7.40376974 26.722525,7.40376974 C26.7902722,7.69885609 27.0040953,8.66457166 27.0040953,8.66457166 L29.1890393,8.66457166 L27.2852784,0.25966127 L27.2852784,0.25966127 L27.2852784,0.25966127 Z" id="path13" fill-rule="nonzero"></path>
                            <path d="M8.35077441,0.25966127 L6.03975607,5.99108688 L5.78722031,4.82868669 C5.35996129,3.48742828 4.01998617,2.03017942 2.52464414,1.30559564 L4.64145383,8.6557773 L7.1368736,8.6557773 L10.8460651,0.25966127 L8.35077441,0.25966127 L8.35077441,0.25966127 L8.35077441,0.25966127 Z" id="path15"></path>
                            <path d="M3.89378282,0.25966127 L0.0971006102,0.25966127 L0.0582588814,0.42948745 C3.01990844,1.1269751 4.98135122,2.8082424 5.78722031,4.82904322 L4.96186583,0.966180963 C4.82598431,0.429368608 4.40840346,0.277368828 3.89378282,0.25966127 L3.89378282,0.25966127 Z" id="path17"></path>
                        </g>
                    </g>
                </g>
            </g>
        </g>
    </g>
</svg>